<svg xmlns="http://www.w3.org/2000/svg" width="35" height="38" viewBox="0 0 35 38">
  <metadata><?xpacket begin="﻿" id="W5M0MpCehiHzreSzNTczkc9d"?>
<x:xmpmeta xmlns:x="adobe:ns:meta/" x:xmptk="Adobe XMP Core 5.6-c138 79.159824, 2016/09/14-01:09:01        ">
   <rdf:RDF xmlns:rdf="http://www.w3.org/1999/02/22-rdf-syntax-ns#">
      <rdf:Description rdf:about=""/>
   </rdf:RDF>
</x:xmpmeta>
                                                                                                    
                                                                                                    
                                                                                                    
                                                                                                    
                                                                                                    
                                                                                                    
                                                                                                    
                                                                                                    
                                                                                                    
                                                                                                    
                                                                                                    
                                                                                                    
                                                                                                    
                                                                                                    
                                                                                                    
                                                                                                    
                                                                                                    
                                                                                                    
                                                                                                    
                                                                                                    
                           
<?xpacket end="w"?></metadata>
<defs>
    <style>
      .cls-1 {
        fill: #5e428b;
        fill-rule: evenodd;
      }
    </style>
  </defs>
  <path class="cls-1" d="M28.792,503.676l-3.757-3.587a0.683,0.683,0,0,0-.867-0.06l-0.766.55-2.773-3.764,2.042-1.465a0.662,0.662,0,0,0,.114-0.975l-4.01-4.591a2.312,2.312,0,0,0-3.081-.352l-1.754,1.259a2.253,2.253,0,0,0-.61,3l3.189,5.18a0.674,0.674,0,0,0,.444.307,0.665,0.665,0,0,0,.133.013,0.685,0.685,0,0,0,.4-0.127l2.042-1.465,2.773,3.764-0.766.55a0.662,0.662,0,0,0-.209.833l2.3,4.632a0.673,0.673,0,0,0,.444.354,0.692,0.692,0,0,0,.163.02,0.681,0.681,0,0,0,.4-0.128l4.083-2.929A0.662,0.662,0,0,0,28.792,503.676Zm-9.5-7.548h0l-1.994,1.43L14.484,493a0.924,0.924,0,0,1,.25-1.23l1.754-1.258a0.947,0.947,0,0,1,1.262.144l3.531,4.042Zm5.2,9.951-1.7-3.417,1.707-1.225,2.771,2.646Zm22.833-1.059a1.367,1.367,0,0,1-1.256-1.065,5.176,5.176,0,0,1-.386-1.316,0.677,0.677,0,0,0-1.341,0c0,0.024-.335,2.381-1.641,2.381a0.667,0.667,0,1,0,0,1.334,1.367,1.367,0,0,1,1.256,1.064,5.181,5.181,0,0,1,.386,1.317,0.677,0.677,0,0,0,1.341,0c0-.024.335-2.38,1.641-2.38A0.667,0.667,0,1,0,47.324,505.02Zm-2.312,1.5a0.867,0.867,0,0,1,0-1.674A0.867,0.867,0,0,1,45.012,506.524ZM35.541,499.9a1.367,1.367,0,0,1-1.256-1.065,5.178,5.178,0,0,1-.386-1.316,0.672,0.672,0,0,0-.669-0.584h0a0.673,0.673,0,0,0-.67.583,5.185,5.185,0,0,1-.386,1.317,1.367,1.367,0,0,1-1.256,1.065,0.667,0.667,0,1,0,0,1.333,1.367,1.367,0,0,1,1.256,1.065,5.172,5.172,0,0,1,.386,1.317,0.672,0.672,0,0,0,.669.583h0a0.673,0.673,0,0,0,.67-0.583,5.169,5.169,0,0,1,.386-1.317,1.367,1.367,0,0,1,1.256-1.065A0.667,0.667,0,1,0,35.541,499.9Zm-2.312,1.5a0.866,0.866,0,0,1,0-1.673A0.866,0.866,0,0,1,33.23,501.405ZM19.521,514.564a1.367,1.367,0,0,1-1.256-1.064,5.183,5.183,0,0,1-.386-1.316,0.677,0.677,0,0,0-1.341,0,5.173,5.173,0,0,1-.386,1.318,1.367,1.367,0,0,1-1.256,1.064,0.667,0.667,0,1,0,0,1.334,1.367,1.367,0,0,1,1.256,1.065,5.173,5.173,0,0,1,.386,1.317,0.677,0.677,0,0,0,1.341,0c0-.024.335-2.381,1.641-2.381A0.667,0.667,0,1,0,19.521,514.564Zm-2.312,1.5a0.867,0.867,0,0,1,0-1.674A0.867,0.867,0,0,1,17.209,516.068ZM47.1,526.224L45.449,516.4c0-.018-0.005-0.035-0.009-0.053l-0.69-4.1a0.673,0.673,0,0,0-.667-0.558,2.9,2.9,0,0,0-2.205,1.008,2.83,2.83,0,0,0-.672,1.572,5.091,5.091,0,0,0-1.17,1.253l-0.049-.289s0,0,0-.006a0.651,0.651,0,0,0-.019-0.158l-0.684-4.067a0.673,0.673,0,0,0-.667-0.557,2.9,2.9,0,0,0-2.2,1.008,2.825,2.825,0,0,0-.665,1.5,5.111,5.111,0,0,0-1.2,1.27l-1.025-6.1a0.673,0.673,0,0,0-.667-0.557,2.9,2.9,0,0,0-2.205,1.008,2.829,2.829,0,0,0-.657,1.45,5.1,5.1,0,0,0-1.2,1.277l-0.051-.306a0.673,0.673,0,0,0-.667-0.557,2.9,2.9,0,0,0-2.2,1.008,2.845,2.845,0,0,0-.328.472,2.9,2.9,0,0,0-2.075,1,2.82,2.82,0,0,0-.647,2.311l1.883,11.2a0.673,0.673,0,0,0,.667.558H46.434a0.678,0.678,0,0,0,.515-0.236A0.658,0.658,0,0,0,47.1,526.224Zm-4.191-12.66a1.546,1.546,0,0,1,.618-0.435l0.451,2.68H42.736l-0.171-1.014c-0.008-.048-0.012-0.095-0.016-0.142,0-.013,0-0.026,0-0.04A1.5,1.5,0,0,1,42.91,513.564Zm-5.465-1.245a1.533,1.533,0,0,1,.618-0.434l0.451,2.679H37.271L37.1,513.55c-0.008-.048-0.013-0.1-0.016-0.144,0-.017,0-0.034,0-0.051A1.5,1.5,0,0,1,37.445,512.319Zm-5.756-2.872a1.533,1.533,0,0,1,.619-0.434l0.451,2.679H31.515s-0.184-1.115-.187-1.166c0-.016,0-0.033,0-0.05A1.5,1.5,0,0,1,31.689,509.447Zm-4.783,2.872a1.533,1.533,0,0,1,.618-0.434l0.451,2.679H26.732s-0.185-1.121-.189-1.174c0,0,0,0,0-.008A1.5,1.5,0,0,1,26.905,512.319Zm-0.959,13.348h0l-1.789-10.64A1.5,1.5,0,0,1,24.5,513.8a1.54,1.54,0,0,1,.688-0.459c0,0.009,0,.018,0,0.027,0.006,0.242.3,1.976,0.3,1.976a0.664,0.664,0,0,0,.23.4,0.681,0.681,0,0,0,.437.158H28.2l1.643,9.769h-3.9Zm5.266,0-1.768-10.514s0-.01,0-0.016l-0.081-.483a3.707,3.707,0,0,1,.792-2.918l0.123,0.733a0.673,0.673,0,0,0,.667.558h2.04l0.8,4.731c0,0.023.007,0.047,0.011,0.071l1.318,7.838H31.212Zm5.265,0-1.363-8.106a3.7,3.7,0,0,1,.8-2.914l0.117,0.693a0.673,0.673,0,0,0,.667.558h2.031l0.534,3.172c0,0.018,0,.035.008,0.052l1.1,6.545H36.477Zm5.265,0-1.143-6.8a3.708,3.708,0,0,1,.791-2.918l0.09,0.533,0.017,0.1a0.673,0.673,0,0,0,.667.558H44.2l1.433,8.523H41.742Z" transform="translate(-13 -489)"/>
</svg>
