<svg xmlns="http://www.w3.org/2000/svg" width="32" height="18" viewBox="0 0 32 18">
  <metadata><?xpacket begin="﻿" id="W5M0MpCehiHzreSzNTczkc9d"?>
<x:xmpmeta xmlns:x="adobe:ns:meta/" x:xmptk="Adobe XMP Core 5.6-c138 79.159824, 2016/09/14-01:09:01        ">
   <rdf:RDF xmlns:rdf="http://www.w3.org/1999/02/22-rdf-syntax-ns#">
      <rdf:Description rdf:about=""/>
   </rdf:RDF>
</x:xmpmeta>
                                                                                                    
                                                                                                    
                                                                                                    
                                                                                                    
                                                                                                    
                                                                                                    
                                                                                                    
                                                                                                    
                                                                                                    
                                                                                                    
                                                                                                    
                                                                                                    
                                                                                                    
                                                                                                    
                                                                                                    
                                                                                                    
                                                                                                    
                                                                                                    
                                                                                                    
                                                                                                    
                           
<?xpacket end="w"?></metadata>
<defs>
    <style>
      .cls-1 {
        fill: #fff;
        fill-rule: evenodd;
      }
    </style>
  </defs>
  <path class="cls-1" d="M64.468,590.712a16.639,16.639,0,0,0-3.113-3.681l-0.139-.12a20.16,20.16,0,0,1-1.42-1.47,1.857,1.857,0,0,1-.31-1.909,11.626,11.626,0,0,1,1.6-2.388q0.693-.914,1.1-1.467c2.457-3.334,2.549-4.337,2.491-4.6L64.63,575a1.16,1.16,0,0,0-.275-0.111,2.2,2.2,0,0,0-.886-0.027l-0.059,0-4.982.035-0.066-.023a0.482,0.482,0,0,1-.083.019l-0.233.09h0a0.827,0.827,0,0,0-.057.066,0.7,0.7,0,0,0-.1.177,29.2,29.2,0,0,1-1.85,3.968c-0.427.731-.822,1.367-1.176,1.9a9.328,9.328,0,0,1-.938,1.229,6.572,6.572,0,0,1-.7.646,1.036,1.036,0,0,1-.844.281q-0.159-.036-0.3-0.072l-0.079-.02-0.068-.044a1.645,1.645,0,0,1-.546-0.6,2.438,2.438,0,0,1-.252-0.853c-0.036-.293-0.057-0.539-0.063-0.751s0-.493.009-0.864q0.017-.526.017-0.712,0-.667.025-1.448t0.043-1.226c0.011-.295.016-0.606,0.016-0.935a3.528,3.528,0,0,0-.049-0.686,2.244,2.244,0,0,0-.146-0.455,0.44,0.44,0,0,0-.164-0.2,1.477,1.477,0,0,0-.428-0.172,10.66,10.66,0,0,0-2.183-.21c-2.518-.03-3.479.183-3.843,0.365a1.641,1.641,0,0,0-.231.152,2.222,2.222,0,0,1,1.123.79l0.043,0.072,0.1,0.208a3.739,3.739,0,0,1,.279.917,8.751,8.751,0,0,1,.163,1.345,14.294,14.294,0,0,1,0,2.241c-0.059.621-.112,1.09-0.165,1.435a3.3,3.3,0,0,1-.275.96,3.088,3.088,0,0,1-.251.459,0.765,0.765,0,0,1-.256.233,1.4,1.4,0,0,1-1.535-.194,4.635,4.635,0,0,1-.792-0.747,9.361,9.361,0,0,1-.874-1.257c-0.313-.521-0.642-1.143-0.976-1.848l-0.26-.479c-0.175-.333-0.41-0.81-0.709-1.437s-0.565-1.24-.8-1.829a0.674,0.674,0,0,0-.231-0.33l-0.113-.073a0.885,0.885,0,0,0-.153-0.076,1.344,1.344,0,0,0-.248-0.075l-4.613.034a0.825,0.825,0,0,0-.591.141l-0.012.02c0,0.012,0,.029,0,0.054a0.916,0.916,0,0,0,.071.293c0.663,1.589,1.4,3.162,2.192,4.658s1.484,2.718,2.062,3.625,1.181,1.785,1.782,2.59,1,1.331,1.194,1.552,0.338,0.386.446,0.5l0.418,0.409a9.746,9.746,0,0,0,1.146.953,20.3,20.3,0,0,0,1.71,1.118,9,9,0,0,0,2.121.87,7.206,7.206,0,0,0,2.327.27h1.982A0.854,0.854,0,0,0,51,591.69l0.036-.049a0.424,0.424,0,0,1,.043-0.149,1.292,1.292,0,0,0,.042-0.344,6.3,6.3,0,0,1,.122-1.45,4.025,4.025,0,0,1,.337-1.034,2.717,2.717,0,0,1,.449-0.626,1.742,1.742,0,0,1,.416-0.345,1.61,1.61,0,0,1,.2-0.086,1.172,1.172,0,0,1,.375-0.062,1.76,1.76,0,0,1,1.029.4,6.214,6.214,0,0,1,1.127,1.093c0.315,0.389.7,0.834,1.146,1.322a7.646,7.646,0,0,0,1.113,1.043l0.311,0.188a3.64,3.64,0,0,0,.779.334,1.413,1.413,0,0,0,.707.074l0.092-.01,4.352-.069a1.475,1.475,0,0,0,.761-0.147,0.506,0.506,0,0,0,.2-0.179,0.876,0.876,0,0,0,0-.372,1.751,1.751,0,0,0-.082-0.339l0.442-.21h0l-0.442.21A1.767,1.767,0,0,0,64.468,590.712Z" transform="translate(-33 -574)"/>
</svg>
